<svg width="20" height="20" viewBox="0 0 20 20" fill="none" xmlns="http://www.w3.org/2000/svg">
<path d="M2.33766 4.33342L5.83706 6.66636L9.3256 1.78238C9.5931 1.40787 10.1136 1.32113 10.4881 1.58863C10.5629 1.64208 10.6283 1.70755 10.6818 1.78238L14.1704 6.66636L17.6698 4.33342C18.0528 4.07813 18.5701 4.18161 18.8254 4.56455C18.9352 4.72923 18.9828 4.92761 18.9597 5.12416L17.5903 16.7637C17.5409 17.1834 17.1853 17.4997 16.7627 17.4997H3.24476C2.8222 17.4997 2.46651 17.1834 2.41714 16.7637L1.04778 5.12416C0.994005 4.66708 1.32096 4.25295 1.77804 4.19917C1.97461 4.17605 2.17298 4.22364 2.33766 4.33342ZM10.0038 12.4997C10.9242 12.4997 11.6704 11.7535 11.6704 10.833C11.6704 9.91254 10.9242 9.16637 10.0038 9.16637C9.08326 9.16637 8.3371 9.91254 8.3371 10.833C8.3371 11.7535 9.08326 12.4997 10.0038 12.4997Z" fill="#C61F1F"/>
</svg>
