<svg width="24" height="24" viewBox="0 0 24 24" fill="none" xmlns="http://www.w3.org/2000/svg">
<g clip-path="url(#clip0_957_26087)">
<mask id="mask0_957_26087" style="mask-type:luminance" maskUnits="userSpaceOnUse" x="0" y="0" width="24" height="24">
<path d="M12 24C18.6274 24 24 18.6274 24 12C24 5.37258 18.6274 0 12 0C5.37258 0 0 5.37258 0 12C0 18.6274 5.37258 24 12 24Z" fill="white"/>
</mask>
<g mask="url(#mask0_957_26087)">
<path d="M0 8.34375L11.9156 7.3125L24 8.34375V9.38906L22.1156 11.925L24 14.6109V15.6562L12.0938 16.7531L0 15.6562V14.6109L1.72031 11.8266L0 9.38906V8.34375Z" fill="#D80027"/>
<path d="M0 0H24V8.34375H0V0Z" fill="#338AF3"/>
<path d="M0 9.38916H24V14.611H0V9.38916Z" fill="#EEEEEE"/>
<path d="M0 15.6562H24V24H0V15.6562Z" fill="#6DA544"/>
<path d="M5.49378 4.95462C5.49315 4.41968 5.67554 3.90063 6.01065 3.48366C6.34576 3.06669 6.81342 2.77691 7.33596 2.66243C7.17111 2.62733 7.00295 2.61004 6.8344 2.61087C6.50849 2.61595 6.18722 2.68896 5.89112 2.82523C5.59503 2.9615 5.33061 3.15804 5.11476 3.40228C4.89891 3.64652 4.73638 3.9331 4.63755 4.2437C4.53872 4.55431 4.50577 4.88212 4.54079 5.20618C4.57582 5.53024 4.67805 5.84344 4.84096 6.12576C5.00388 6.40807 5.22389 6.65331 5.48694 6.84579C5.74999 7.03827 6.05029 7.17377 6.36867 7.24362C6.68705 7.31348 7.01649 7.31616 7.33596 7.25149C6.28128 7.01712 5.49378 6.07962 5.49378 4.95462ZM8.72815 6.02337L8.88284 6.51087H9.39846L8.97659 6.81556L9.14065 7.30306L8.71878 7.00306L8.31096 7.30306L8.47034 6.81556L8.04846 6.51087H8.56409L8.72815 6.02337ZM10.3688 6.02337L10.5282 6.51087H11.0438L10.6219 6.81556L10.7813 7.30306L10.3688 7.00306L9.9469 7.30306L10.111 6.81556L9.68909 6.51087H10.2047L10.3688 6.02337ZM12.0094 6.02337L12.1688 6.51087H12.6844L12.2625 6.81556L12.4266 7.30306L12.0047 7.00306L11.5922 7.30306L11.7516 6.81556L11.3297 6.51087H11.8453L12.0094 6.02337ZM13.65 6.02337L13.8094 6.51087H14.325L13.9032 6.81556L14.0672 7.30306L13.6453 7.00306L13.2328 7.30306L13.3922 6.81556L12.9703 6.51087H13.486L13.65 6.02337ZM15.2907 6.02337L15.45 6.51087H15.9657L15.5438 6.81556L15.7078 7.30306L15.286 7.00306L14.8735 7.30306L15.0328 6.81556L14.6203 6.51087H15.136L15.2907 6.02337ZM10.3688 4.31712L10.5282 4.80462H11.0438L10.6219 5.10931L10.7813 5.59681L10.3688 5.29212L9.9469 5.59681L10.111 5.10931L9.68909 4.80462H10.2047L10.3688 4.31712ZM12.0094 4.31712L12.1688 4.80462H12.6844L12.2625 5.10931L12.4266 5.59681L12.0047 5.29212L11.5922 5.59681L11.7516 5.10931L11.3297 4.80462H11.8453L12.0094 4.31712ZM13.65 4.31712L13.8094 4.80462H14.325L13.9032 5.10931L14.0672 5.59681L13.6453 5.29212L13.2328 5.59681L13.3922 5.10931L12.9703 4.80462H13.486L13.65 4.31712ZM15.2907 4.31712L15.45 4.80462H15.9657L15.5438 5.10931L15.7078 5.59681L15.286 5.29212L14.8735 5.59681L15.0328 5.10931L14.6203 4.80462H15.136L15.2907 4.31712ZM12.0094 2.61087L12.1688 3.09837H12.6844L12.2625 3.39837L12.4313 3.89056L12.0094 3.58587L11.5969 3.89056L11.7563 3.39837L11.3344 3.09837H11.85L12.0094 2.61087ZM13.65 2.61087L13.8094 3.09837H14.325L13.9032 3.39837L14.0719 3.89056L13.65 3.58587L13.2375 3.89056L13.3969 3.39837L12.975 3.09837H13.4907L13.65 2.61087ZM15.2907 2.61087L15.45 3.09837H15.9657L15.5438 3.39837L15.7125 3.89056L15.2907 3.58587L14.8782 3.89056L15.0375 3.39837L14.625 3.09837H15.1407L15.2907 2.61087Z" fill="#EEEEEE"/>
</g>
</g>
<defs>
<clipPath id="clip0_957_26087">
<rect width="24" height="24" fill="white"/>
</clipPath>
</defs>
</svg>
